<svg width="134" height="160" viewBox="0 0 134 160" fill="none" xmlns="http://www.w3.org/2000/svg">
<path d="M117.94 28.5236C104.94 9.91723 79.2652 4.40223 60.7009 16.2301L28.0976 37.0097C23.6932 39.7806 19.9154 43.44 17.0057 47.754C14.096 52.0679 12.1184 56.9415 11.1993 62.0632C9.64406 70.6905 11.011 79.5901 15.0838 87.353C12.293 91.5864 10.3896 96.3418 9.48856 101.332C8.55975 106.557 8.68361 111.914 9.85286 117.091C11.0221 122.267 13.2132 127.158 16.2977 131.476C29.3004 150.084 54.9756 155.597 73.5369 143.77L106.14 122.99C110.545 120.22 114.323 116.56 117.233 112.246C120.142 107.932 122.12 103.058 123.039 97.9366C124.594 89.3094 123.228 80.41 119.157 72.6462C121.947 68.4129 123.85 63.6577 124.75 58.6682C125.679 53.4434 125.556 48.0855 124.386 42.909C123.217 37.7325 121.026 32.8417 117.941 28.5236" fill="#FF3E00"/>
<path d="M57.5158 133.227C52.3851 134.561 46.9685 134.288 41.9976 132.446C37.0268 130.603 32.7411 127.28 29.7194 122.924C27.8642 120.327 26.5462 117.386 25.8429 114.273C25.1396 111.16 25.0651 107.938 25.6237 104.796C25.8129 103.764 26.0732 102.747 26.4028 101.751L27.0168 99.8786L28.6872 101.106C32.5448 103.94 36.858 106.095 41.4409 107.478L42.6527 107.845L42.5411 109.055C42.393 110.775 42.8589 112.493 43.8561 113.902C44.7654 115.214 46.0555 116.216 47.5522 116.771C49.0488 117.327 50.6799 117.41 52.2251 117.009C52.9336 116.819 53.609 116.522 54.2277 116.129L86.8319 95.3513C87.6297 94.8489 88.3141 94.1859 88.8415 93.4045C89.3689 92.623 89.7278 91.7403 89.8952 90.8125C90.0625 89.8654 90.0395 88.8945 89.8276 87.9564C89.6156 87.0182 89.219 86.1317 88.6608 85.3485C87.7509 84.0361 86.4603 83.0345 84.9632 82.4787C83.466 81.9229 81.8344 81.8398 80.2886 82.2405C79.5809 82.4299 78.9065 82.7265 78.2886 83.12L65.8471 91.0511C63.8012 92.3519 61.5686 93.3324 59.2264 93.9585C54.0957 95.2925 48.6792 95.0198 43.7084 93.1773C38.7376 91.3347 34.452 88.011 31.4304 83.6551C29.5751 81.0584 28.2571 78.1173 27.5538 75.0043C26.8505 71.8914 26.776 68.6693 27.3347 65.5271C27.8873 62.4473 29.0765 59.5167 30.8264 56.9228C32.5763 54.3288 34.8484 52.1287 37.4972 50.463L70.0986 29.684C72.1453 28.3811 74.3795 27.3994 76.7236 26.7731C81.8543 25.4392 87.2707 25.7119 92.2415 27.5544C97.2123 29.3969 101.498 32.7206 104.519 37.0764C106.375 39.6732 107.693 42.6143 108.396 45.7273C109.099 48.8403 109.174 52.0624 108.615 55.2045C108.425 56.236 108.165 57.2532 107.836 58.2491L107.222 60.1214L105.553 58.8964C101.695 56.0603 97.3816 53.9043 92.798 52.5214L91.5862 52.1536L91.6978 50.9443C91.8446 49.2239 91.3789 47.5071 90.3828 46.0968C89.4735 44.7847 88.1834 43.7833 86.6867 43.2278C85.1901 42.6723 83.559 42.5895 82.0138 42.9905C81.3053 43.1799 80.6299 43.4767 80.0112 43.8706L47.4069 64.6488C46.6093 65.1507 45.9251 65.8135 45.3981 66.5948C44.871 67.3761 44.5127 68.2587 44.3461 69.1863C44.1777 70.1333 44.2 71.1044 44.4116 72.0427C44.6231 72.981 45.0197 73.8677 45.5781 74.6509C46.488 75.9633 47.7786 76.9649 49.2757 77.5207C50.7729 78.0765 52.4045 78.1596 53.9503 77.7589C54.6587 77.5691 55.334 77.2723 55.9528 76.8788L68.3927 68.9506C70.4377 67.6481 72.6702 66.6668 75.0126 66.0409C80.1433 64.7069 85.5598 64.9796 90.5306 66.8221C95.5014 68.6647 99.787 71.9884 102.809 76.3443C104.664 78.941 105.982 81.8821 106.685 84.9951C107.389 88.108 107.463 91.3301 106.904 94.4723C106.351 97.5523 105.162 100.483 103.412 103.077C101.662 105.672 99.3904 107.872 96.7418 109.539L64.1403 130.316C62.0936 131.619 59.8594 132.601 57.5153 133.227" fill="white"/>
</svg>
